<svg width="2252" height="2027" xmlns="http://www.w3.org/2000/svg" xmlns:xlink="http://www.w3.org/1999/xlink" xml:space="preserve" overflow="hidden"><defs><clipPath id="clip0"><rect x="1678" y="136" width="2252" height="2027"/></clipPath></defs><g clip-path="url(#clip0)" transform="translate(-1678 -136)"><path d="M2808.83 1159.71 3181.56 840.417 3929.76 2144.63Z" fill="#FFFFFC" fill-rule="evenodd"/><path d="M2808.1 197.121 3185.19 846.204 1678.44 2162.13Z" fill="#3070B3" fill-rule="evenodd"/><path d="M2760.25 632.405C2774.11 624.558 2789.93 615.185 2819.17 606.901 2848.41 598.618 2898.49 588.047 2935.7 582.706 2972.91 577.365 3002.69 576.385 3042.41 574.859 3082.13 573.333 3134.06 570.063 3174 573.551 3213.93 577.039 3252.45 586.085 3282.02 595.785 3311.59 605.485 3332.97 619.98 3351.41 631.751 3369.85 643.522 3381.2 654.202 3392.66 666.409 3404.11 678.616 3411.31 688.861 3420.15 704.991 3428.99 721.121 3438.48 736.379 3445.68 763.191 3452.88 790.002 3460.85 838.938 3463.36 865.858 3465.87 892.778 3465.87 902.151 3460.74 924.711 3455.61 947.272 3444.7 979.096 3432.59 1001.22 3420.48 1023.35 3406.62 1042.53 3388.07 1057.46 3369.52 1072.39 3343.45 1082.96 3321.3 1090.81 3299.15 1098.66 3279.73 1100.95 3255.18 1104.54 3230.63 1108.14 3206.19 1111.3 3174 1112.39 3141.81 1113.48 3095.33 1113.15 3062.05 1111.08 3028.77 1109.01 3002.15 1104.11 2974.33 1099.96 2946.5 1095.82 2921.52 1093.21 2895.11 1086.23 2868.71 1079.26 2837.72 1068.47 2815.9 1058.11 2794.08 1047.76 2780.22 1039.26 2764.18 1024.11 2748.14 1008.96 2730.46 986.834 2719.66 967.217 2708.86 947.599 2704.17 927.218 2699.37 906.401 2694.57 885.584 2692.39 863.787 2690.86 842.316 2689.33 820.846 2687.91 800.356 2690.2 777.577 2692.49 754.798 2696.97 726.244 2704.61 705.645 2712.24 685.046 2726.54 665.646 2736.03 653.984 2745.52 642.322 2746.39 640.252 2760.25 632.405Z" fill-rule="evenodd"/><path d="M2792.86 694.792C2799.73 685.735 2799.29 683.334 2809.88 678.424 2820.46 673.514 2835.09 670.022 2856.37 665.33 2877.64 660.638 2904.16 654.309 2937.55 650.271 2970.94 646.234 3022.12 642.742 3056.71 641.105 3091.3 639.469 3121.09 640.014 3145.1 640.45 3169.11 640.887 3178.93 639.469 3200.75 643.724 3222.58 647.98 3256.73 658.892 3276.05 665.985 3295.36 673.078 3303.55 676.678 3316.64 686.281 3329.74 695.883 3344.14 708.869 3354.62 723.6 3365.09 738.331 3373.17 757.536 3379.5 774.667 3385.82 791.799 3389.86 807.621 3392.59 826.39 3395.32 845.159 3396.41 870.147 3395.86 887.279 3395.32 904.41 3394.45 912.921 3389.32 929.18 3384.19 945.439 3374.48 970.428 3365.09 984.831 3355.71 999.235 3349.71 1006.76 3333.01 1015.6 3316.31 1024.44 3289.58 1032.52 3264.92 1037.86 3240.26 1043.21 3211.45 1045.94 3185.04 1047.68 3158.63 1049.43 3130.26 1049.21 3106.47 1048.34 3082.68 1047.47 3042.31 1042.45 3042.31 1042.45 3020.7 1040.37 2997.46 1038.63 2976.84 1035.9 2956.21 1033.17 2942.35 1033.17 2918.57 1026.08 2894.78 1018.99 2854.62 1004.36 2834.1 993.343 2813.59 982.322 2805.51 971.628 2795.48 959.952 2785.44 948.276 2779.11 935.728 2773.87 923.288 2768.63 910.849 2766.67 900.264 2764.05 885.314 2761.43 870.365 2759.57 849.851 2758.16 833.592 2756.74 817.333 2753.79 804.566 2755.54 787.762 2757.28 770.957 2763.72 746.624 2768.63 732.766 2773.54 718.908 2785.98 703.849 2792.86 694.792Z" fill="#4A646E" fill-rule="evenodd"/><path d="M2821.88 675.643C2813.37 688.723 2825.8 713.139 2832.34 735.811 2838.88 758.483 2850.44 790.529 2861.12 811.676 2871.8 832.822 2885.43 849.826 2896.44 862.688 2907.45 875.55 2915.3 881.654 2927.18 888.848 2939.07 896.042 2947.13 901.71 2967.74 905.852 2988.34 909.994 3019.74 912.065 3050.81 913.7 3081.88 915.335 3125.37 916.643 3154.15 915.662 3182.93 914.682 3202.77 910.975 3223.48 907.814 3244.2 904.653 3259.13 902.255 3278.43 896.696 3297.72 891.137 3323.34 881.109 3339.26 874.46 3355.17 867.811 3364.88 862.47 3373.92 856.802 3382.97 851.134 3390.38 843.722 3393.55 840.452 3396.71 837.182 3393.87 842.523 3392.89 837.182 3391.91 831.841 3390.06 818.979 3387.66 808.406 3385.26 797.833 3382.32 785.734 3378.5 773.744 3374.69 761.753 3369.35 745.076 3364.77 736.465 3360.19 727.854 3355.06 727.091 3351.03 722.077 3347 717.063 3347.43 712.594 3340.57 706.381 3333.7 700.168 3321.16 691.775 3309.82 684.799 3298.49 677.823 3286.49 670.411 3272.54 664.525 3258.59 658.639 3241.8 653.407 3226.1 649.483 3210.4 645.559 3197.76 642.725 3178.35 640.981 3158.95 639.237 3134.42 638.91 3109.67 639.019 3084.93 639.128 3057.89 640 3029.87 641.635 3001.86 643.27 2965.99 646.213 2941.57 648.829 2917.15 651.445 2902.66 653.298 2883.36 657.331 2864.06 661.364 2830.38 662.563 2821.88 675.643Z" fill="#98C7DC" fill-rule="evenodd"/><path d="M3062.08 780.209C3080.02 787.191 3108.68 796.681 3131.65 801.808 3154.62 806.936 3177.26 810.645 3199.9 810.972 3222.54 811.299 3250 808.79 3267.5 803.772 3285 798.754 3297.69 788.5 3304.91 780.864 3312.12 773.227 3311.03 765.373 3310.81 757.955 3310.59 750.537 3308.08 743.228 3303.59 736.356 3299.11 729.483 3292.87 722.829 3283.9 716.72 3274.94 710.612 3264.65 705.266 3249.78 699.703 3234.9 694.139 3213.79 687.376 3194.65 683.339 3175.51 679.303 3154.73 676.467 3134.93 675.485 3115.13 674.504 3093.37 674.94 3075.86 677.449 3058.36 679.958 3041.96 685.085 3029.93 690.539 3017.89 695.994 3008.27 702.648 3003.67 710.175 2999.08 717.702 2998.97 727.411 3002.36 735.701 3005.75 743.992 3014.72 752.719 3024.02 759.919 3033.32 767.119 3044.15 773.228 3062.08 780.209Z" fill="#FCFEFD" fill-rule="evenodd"/><path d="M36.9857 194.12C-30.8861 177.756 10.4803 142.124 36.526 121.631 62.5716 101.139 55.7537 106.874 69.1596 98.6921 82.5654 90.5103 96.1245 83.0933 116.961 72.5411 137.797 61.989 169.512 44.5552 194.179 35.3794 218.845 26.2036 244.202 22.5334 264.961 17.4867 285.721 12.4401 301.655 8.00507 318.738 5.09943 335.821 2.19379 352.291-0.405969 367.459 0.0527876 382.627 0.511545 398.56 4.10542 409.745 7.85218 420.929 11.5989 427.134 15.9573 434.564 22.5334 441.995 29.1094 449.119 40.732 454.329 47.3079 459.538 53.8838 461.3 58.4717 465.819 61.9891 470.339 65.5065 474.476 64.9712 481.447 68.4121 488.418 71.853 495.772 75.141 507.645 82.6345 519.519 90.128 536.832 100.068 552.689 113.373 568.546 126.678 590.072 147.247 602.789 162.463 615.505 177.68 623.089 191.979 628.987 204.672 634.886 217.365 636.724 228.835 638.18 238.622 639.636 248.41 638.946 253.915 637.72 263.397 636.495 272.878 634.35 281.213 630.826 295.512 627.302 309.811 621.25 329.233 616.577 349.19 611.905 369.147 608.764 392.239 602.789 415.255 596.813 438.271 586.625 470.004 580.726 487.285 574.828 504.566 574.215 511.524 567.397 518.941 560.579 526.358 549.625 533.316 539.82 531.787 530.014 530.258 514.233 515.118 508.565 509.765 502.896 504.413 506.343 505.33 505.807 499.672 505.271 494.013 503.126 487.973 505.347 475.815 507.569 463.657 516.685 441.712 519.136 426.725 521.588 411.738 520.821 403.021 520.055 385.893 519.289 368.765 518.753 329.385 514.54 323.956 510.327 318.527 496.231 354.007 494.776 353.319 493.32 352.631 514.54 350.948 438.242 324.415 361.943 297.882 104.857 210.483 36.9857 194.12Z" fill="#CE0000" fill-rule="evenodd" transform="matrix(-1 0 0 1 2953 136)"/><path d="M0 31.6561C0 14.1729 14.1729-4.89414e-15 31.656-9.78828e-15L583.41 0C600.893-4.89414e-15 615.066 14.1729 615.066 31.6561L615.066 158.277C615.066 175.76 600.893 189.933 583.41 189.933L31.656 189.933C14.1729 189.933-4.89413e-15 175.76-9.78826e-15 158.277Z" fill="#FCFEFD" fill-rule="evenodd" transform="matrix(-0.918924 0.394435 0.394435 0.918924 2971.6 253.552)"/><path d="M0 94.5C-1.20311e-14 42.3091 42.309-1.20311e-14 94.4998-2.40622e-14 146.691-4.81245e-14 189 42.3091 189 94.5 189 146.691 146.691 189 94.4998 189 42.309 189-6.01555e-14 146.691 0 94.5Z" fill="#FCFEFD" fill-rule="evenodd" transform="matrix(-1 0 0 1 2525 641)"/></g></svg>