<svg width="752" height="594" xmlns="http://www.w3.org/2000/svg" xmlns:xlink="http://www.w3.org/1999/xlink" xml:space="preserve" overflow="hidden">
	<defs>
		<clipPath id="clip0">
			<rect x="1932" y="935" width="752" height="594" />
		</clipPath>
	</defs>
	<g clip-path="url(#clip0)" transform="translate(-1932 -935)">
		<path d="M1980.95 1162.02C1921.31 1162.83 1953.68 1298.17 1964.65 1328.73 1975.63 1359.29 2035.37 1363.15 2046.78 1345.37 2058.18 1327.59 2044.06 1252.61 2033.09 1222.05 2022.12 1191.49 2040.59 1161.2 1980.95 1162.02Z" stroke="#000000" stroke-width="27.5" stroke-miterlimit="8" fill="#935500" fill-rule="evenodd" />
		<path d="M1952.46 1030.81C1972.43 1002.94 2087.99 1065.24 2146.92 1052.45 2205.84 1039.66 2275.9 956.713 2306.02 954.09 2336.14 951.467 2309.95 1006.55 2327.62 1036.71 2345.3 1066.88 2380.33 1108.84 2412.09 1135.07 2443.84 1161.3 2486.73 1178.02 2518.15 1194.09 2549.58 1210.15 2579.37 1223.6 2600.65 1231.47 2621.93 1239.33 2635.68 1237.37 2645.83 1241.3 2655.98 1245.24 2657.61 1244.58 2661.54 1255.07 2665.47 1265.56 2672.02 1292.12 2669.4 1304.25 2666.78 1316.38 2645.83 1327.86 2645.83 1327.86 2636.99 1336.38 2627.82 1347.2 2616.36 1355.4 2604.91 1363.6 2585.92 1364.25 2577.08 1377.04 2568.24 1389.83 2568.9 1414.42 2563.33 1432.12 2557.77 1449.83 2554.49 1472.45 2543.69 1483.27 2532.89 1494.09 2523.06 1491.79 2498.51 1497.04 2473.96 1502.28 2430.75 1515.73 2396.37 1514.74 2362 1513.76 2321.73 1490.15 2292.27 1491.14 2262.81 1492.12 2250.04 1518.68 2219.59 1520.64 2189.15 1522.61 2132.19 1516.38 2109.6 1502.94 2087.01 1489.5 2097.81 1487.2 2084.06 1439.99 2070.31 1392.78 2049.69 1286.55 2027.1 1219.66 2004.51 1152.78 1932.49 1058.68 1952.46 1030.81Z" fill="#FF9E15" fill-rule="evenodd" />
		<path d="M2045.05 1048.51C2069.57 1072.12 2081.67 1126.22 2099.98 1166.54 2118.3 1206.87 2127.13 1256.38 2154.92 1290.47 2182.72 1324.57 2234.39 1351.46 2266.76 1371.13 2299.13 1390.8 2313.52 1401.95 2349.17 1408.51 2384.81 1415.06 2455.12 1416.7 2480.62 1410.47 2506.13 1404.24 2486.75 1379.08 2502.21 1371.13 2517.66 1363.18 2564.99 1348.01 2573.33 1362.77 2581.67 1377.52 2569.32 1437.28 2552.24 1459.65 2535.15 1482.03 2509.89 1491.45 2470.81 1497.03 2431.74 1502.6 2348.18 1496.04 2317.77 1493.09 2287.36 1490.14 2305.67 1475.72 2288.34 1479.32 2271.01 1482.93 2244.52 1513.09 2213.78 1514.73 2183.04 1516.37 2125.82 1510.8 2103.91 1489.16 2082 1467.52 2092.46 1425.55 2082.33 1384.9 2072.19 1344.24 2057.47 1287.52 2043.08 1245.23 2028.7 1202.94 2008.42 1163.26 1996 1131.13 1983.57 1099 1945.96 1039.66 1952.83 1024.91 1959.7 1010.15 2020.52 1024.91 2045.05 1048.51Z" fill="#B46E0C" fill-rule="evenodd" />
		<path d="M2107.78 1440.11C2123.19 1436.03 2171.88 1457.27 2195.32 1456.78 2218.76 1456.29 2229.25 1438.64 2248.43 1437.17 2267.6 1435.7 2290.06 1444.04 2310.39 1447.96 2330.71 1451.88 2352.02 1456.29 2370.38 1460.7 2388.74 1465.12 2412.02 1468.55 2420.54 1474.43 2429.07 1480.31 2438.57 1492.73 2421.52 1496 2404.48 1499.27 2346.94 1492.24 2318.26 1494.04 2289.57 1495.84 2279.57 1503.68 2249.41 1506.79 2219.25 1509.89 2161.71 1516.92 2137.29 1512.67 2112.87 1508.42 2106.96 1492.73 2102.87 1481.29 2098.77 1469.86 2092.38 1444.2 2107.78 1440.11Z" fill="#935500" fill-rule="evenodd" />
		<path d="M1952.46 1025.68C1972.43 997.856 2087.99 1060.04 2146.92 1047.28 2205.84 1034.51 2275.9 951.709 2306.02 949.09 2336.14 946.472 2309.95 1001.46 2327.62 1031.57 2345.3 1061.68 2380.33 1103.57 2412.09 1129.75 2443.84 1155.94 2486.73 1172.63 2518.15 1188.67 2549.58 1204.7 2579.37 1218.12 2600.65 1225.98 2621.93 1233.83 2635.68 1231.87 2645.83 1235.79 2655.98 1239.72 2657.61 1239.07 2661.54 1249.54 2665.47 1260.01 2672.02 1286.53 2669.4 1298.63 2666.78 1310.74 2645.83 1322.2 2645.83 1322.2 2636.99 1330.71 2627.82 1341.51 2616.36 1349.69 2604.91 1357.87 2585.92 1358.53 2577.08 1371.29 2568.24 1384.06 2568.9 1408.6 2563.33 1426.28 2557.77 1443.95 2554.49 1466.53 2543.69 1477.33 2532.89 1488.13 2523.06 1485.84 2498.51 1491.08 2473.96 1496.32 2430.75 1509.74 2396.37 1508.75 2362 1507.77 2321.73 1484.21 2292.27 1485.19 2262.81 1486.17 2250.04 1512.68 2219.59 1514.64 2189.15 1516.61 2132.19 1510.39 2109.6 1496.97 2087.01 1483.55 2097.81 1481.26 2084.06 1434.13 2070.31 1387 2049.69 1280.96 2027.1 1214.19 2004.51 1147.43 1932.49 1053.5 1952.46 1025.68Z" stroke="#000000" stroke-width="27.5" stroke-miterlimit="8" fill="none" fill-rule="evenodd" />
		<path d="M2109.87 1146.78C2125.99 1142.2 2142.77 1151.56 2147.35 1167.68L2162.72 1221.82C2167.3 1237.94 2157.94 1254.72 2141.82 1259.3L2141.82 1259.3C2125.7 1263.88 2108.92 1254.52 2104.34 1238.4L2088.97 1184.25C2084.39 1168.13 2093.75 1151.35 2109.87 1146.78Z" fill-rule="evenodd" />
		<path d="M2293.81 1087.57C2309.93 1083 2326.71 1092.35 2331.29 1108.48L2338.39 1133.5C2342.97 1149.62 2333.61 1166.4 2317.49 1170.97L2317.49 1170.97C2301.37 1175.55 2284.59 1166.19 2280.01 1150.07L2272.91 1125.05C2268.33 1108.93 2277.69 1092.15 2293.81 1087.57Z" fill-rule="evenodd" />
		<path d="M2382.11 1230.85C2390.48 1211.25 2413.17 1202.15 2432.77 1210.52L2533.73 1253.67C2553.33 1262.04 2562.43 1284.72 2554.05 1304.33L2554.05 1304.33C2545.68 1323.93 2522.99 1333.03 2503.39 1324.65L2402.43 1281.51C2382.83 1273.13 2373.73 1250.45 2382.11 1230.85Z" fill="#FFD6A0" fill-rule="evenodd" />
	</g>
</svg>
