<svg width="2260" height="1966" xmlns="http://www.w3.org/2000/svg" xmlns:xlink="http://www.w3.org/1999/xlink" xml:space="preserve" overflow="hidden">
	<defs>
		<clipPath id="clip0">
			<rect x="1678" y="197" width="2260" height="1966" />
		</clipPath>
	</defs>
	<g clip-path="url(#clip0)" transform="translate(-1678 -197)">
	<path d="M1391.89 714.966C1159.74 658.931 1375.9 525.456 1390.31 466.737 1404.72 408.019 1434.79 401.145 1478.35 362.654 1521.91 324.163 1583.03 280.434 1651.68 235.79 1720.33 191.146 1811.77 133.737 1890.25 94.7873 1968.72 55.8379 2046.28 4.64732 2122.53 2.09424 2198.77-0.45885 2288.32 49.4884 2347.73 79.4695 2407.14 109.451 2438.26 154.88 2479 181.981 2519.75 209.082 2554.59 221.716 2592.19 242.075 2629.79 262.433 2671.32 282.922 2704.6 304.132 2737.88 325.341 2767.48 349.104 2791.85 369.331 2816.22 389.559 2830.76 406.579 2850.81 425.497 2870.85 444.415 2887.62 457.311 2912.12 482.841 2936.62 508.37 2965.38 544.505 2997.8 578.676 3030.22 612.847 3078.96 645.577 3106.67 687.865 3134.38 730.153 3142.5 789.788 3164.05 832.403 3185.6 875.018 3218.42 913.838 3235.97 943.557 3253.53 973.276 3261.13 989.313 3269.38 1010.72 3277.64 1032.12 3281.17 1050 3285.5 1071.99 3289.82 1093.99 3289.36 1112.05 3295.32 1142.69 3301.28 1173.32 3315.96 1200.88 3321.26 1255.81 3326.57 1310.73 3338.75 1395.04 3327.16 1472.22 3315.56 1549.4 3271.87 1659.7 3251.7 1718.88 3231.52 1778.05 3229.42 1801.88 3206.1 1827.28 3182.79 1852.68 3145.32 1876.51 3111.78 1871.27 3078.24 1866.03 3024.26 1814.19 3004.87 1795.86 2985.48 1777.53 2997.28 1780.67 2995.44 1761.3 2993.61 1741.92 2986.27 1721.23 2993.87 1679.6 3001.47 1637.97 3032.65 1562.82 3041.03 1511.5 3049.42 1460.18 3046.8 1430.33 3044.18 1371.67 3041.56 1313.02 3039.72 1178.17 3025.31 1159.58 3010.9 1140.99 2962.69 1262.48 2957.71 1260.13 2952.73 1257.77 3025.31 1252.01 2764.34 1161.15 2503.37 1070.29 1624.03 771 1391.89 714.966Z" fill="#CE0000" fill-rule="evenodd"/><path d="M1157.78 551.783C1181.38 496.799 1245.09 471.359 1300.07 494.959L3035.3 1239.78C3090.28 1263.38 3115.72 1327.09 3092.12 1382.07L2921.19 1780.28C2897.59 1835.27 2833.89 1860.71 2778.91 1837.11L1043.68 1092.28C988.695 1068.68 963.255 1004.98 986.856 949.996Z" fill="#FCFEFD" fill-rule="evenodd"/>
        <path d="M2728 2101C2728 1922.06 2872.84 1777 3051.5 1777 3230.16 1777 3375 1922.06 3375 2101 3375 2279.94 3230.16 2425 3051.5 2425 2872.84 2425 2728 2279.94 2728 2101Z" fill="#FCFEFD" fill-rule="evenodd"/>
		<path d="M2805.62 1163.36 3182.08 840.875 3937.77 2158.15Z" fill="#FFFFFC" fill-rule="evenodd" />
		<path d="M2808.1 197.121 3185.19 846.204 1678.44 2162.13Z" fill="#3070B3" fill-rule="evenodd" />
		<path d="M2760.25 632.405C2774.11 624.558 2789.93 615.185 2819.17 606.901 2848.41 598.618 2898.49 588.047 2935.7 582.706 2972.91 577.365 3002.69 576.385 3042.41 574.859 3082.13 573.333 3134.06 570.063 3174 573.551 3213.93 577.039 3252.45 586.085 3282.02 595.785 3311.59 605.485 3332.97 619.98 3351.41 631.751 3369.85 643.522 3381.2 654.202 3392.66 666.409 3404.11 678.616 3411.31 688.861 3420.15 704.991 3428.99 721.121 3438.48 736.379 3445.68 763.191 3452.88 790.002 3460.85 838.938 3463.36 865.858 3465.87 892.778 3465.87 902.151 3460.74 924.711 3455.61 947.272 3444.7 979.096 3432.59 1001.22 3420.48 1023.35 3406.62 1042.53 3388.07 1057.46 3369.52 1072.39 3343.45 1082.96 3321.3 1090.81 3299.15 1098.66 3279.73 1100.95 3255.18 1104.54 3230.63 1108.14 3206.19 1111.3 3174 1112.39 3141.81 1113.48 3095.33 1113.15 3062.05 1111.08 3028.77 1109.01 3002.15 1104.11 2974.33 1099.96 2946.5 1095.82 2921.52 1093.21 2895.11 1086.23 2868.71 1079.26 2837.72 1068.47 2815.9 1058.11 2794.08 1047.76 2780.22 1039.26 2764.18 1024.11 2748.14 1008.96 2730.46 986.834 2719.66 967.217 2708.86 947.599 2704.17 927.218 2699.37 906.401 2694.57 885.584 2692.39 863.787 2690.86 842.316 2689.33 820.846 2687.91 800.356 2690.2 777.577 2692.49 754.798 2696.97 726.244 2704.61 705.645 2712.24 685.046 2726.54 665.646 2736.03 653.984 2745.52 642.322 2746.39 640.252 2760.25 632.405Z" fill-rule="evenodd" />
		<path d="M2792.86 694.792C2799.73 685.735 2799.29 683.334 2809.88 678.424 2820.46 673.514 2835.09 670.022 2856.37 665.33 2877.64 660.638 2904.16 654.309 2937.55 650.271 2970.94 646.234 3022.12 642.742 3056.71 641.105 3091.3 639.469 3121.09 640.014 3145.1 640.45 3169.11 640.887 3178.93 639.469 3200.75 643.724 3222.58 647.98 3256.73 658.892 3276.05 665.985 3295.36 673.078 3303.55 676.678 3316.64 686.281 3329.74 695.883 3344.14 708.869 3354.62 723.6 3365.09 738.331 3373.17 757.536 3379.5 774.667 3385.82 791.799 3389.86 807.621 3392.59 826.39 3395.32 845.159 3396.41 870.147 3395.86 887.279 3395.32 904.41 3394.45 912.921 3389.32 929.18 3384.19 945.439 3374.48 970.428 3365.09 984.831 3355.71 999.235 3349.71 1006.76 3333.01 1015.6 3316.31 1024.44 3289.58 1032.52 3264.92 1037.86 3240.26 1043.21 3211.45 1045.94 3185.04 1047.68 3158.63 1049.43 3130.26 1049.21 3106.47 1048.34 3082.68 1047.47 3042.31 1042.45 3042.31 1042.45 3020.7 1040.37 2997.46 1038.63 2976.84 1035.9 2956.21 1033.17 2942.35 1033.17 2918.57 1026.08 2894.78 1018.99 2854.62 1004.36 2834.1 993.343 2813.59 982.322 2805.51 971.628 2795.48 959.952 2785.44 948.276 2779.11 935.728 2773.87 923.288 2768.63 910.849 2766.67 900.264 2764.05 885.314 2761.43 870.365 2759.57 849.851 2758.16 833.592 2756.74 817.333 2753.79 804.566 2755.54 787.762 2757.28 770.957 2763.72 746.624 2768.63 732.766 2773.54 718.908 2785.98 703.849 2792.86 694.792Z" fill="#4A646E" fill-rule="evenodd" />
		<path d="M2821.88 675.643C2813.37 688.723 2825.8 713.139 2832.34 735.811 2838.88 758.483 2850.44 790.529 2861.12 811.676 2871.8 832.822 2885.43 849.826 2896.44 862.688 2907.45 875.55 2915.3 881.654 2927.18 888.848 2939.07 896.042 2947.13 901.71 2967.74 905.852 2988.34 909.994 3019.74 912.065 3050.81 913.7 3081.88 915.335 3125.37 916.643 3154.15 915.662 3182.93 914.682 3202.77 910.975 3223.48 907.814 3244.2 904.653 3259.13 902.255 3278.43 896.696 3297.72 891.137 3323.34 881.109 3339.26 874.46 3355.17 867.811 3364.88 862.47 3373.92 856.802 3382.97 851.134 3390.38 843.722 3393.55 840.452 3396.71 837.182 3393.87 842.523 3392.89 837.182 3391.91 831.841 3390.06 818.979 3387.66 808.406 3385.26 797.833 3382.32 785.734 3378.5 773.744 3374.69 761.753 3369.35 745.076 3364.77 736.465 3360.19 727.854 3355.06 727.091 3351.03 722.077 3347 717.063 3347.43 712.594 3340.57 706.381 3333.7 700.168 3321.16 691.775 3309.82 684.799 3298.49 677.823 3286.49 670.411 3272.54 664.525 3258.59 658.639 3241.8 653.407 3226.1 649.483 3210.4 645.559 3197.76 642.725 3178.35 640.981 3158.95 639.237 3134.42 638.91 3109.67 639.019 3084.93 639.128 3057.89 640 3029.87 641.635 3001.86 643.27 2965.99 646.213 2941.57 648.829 2917.15 651.445 2902.66 653.298 2883.36 657.331 2864.06 661.364 2830.38 662.563 2821.88 675.643Z" fill="#98C7DC" fill-rule="evenodd" />
		<path d="M3062.08 780.209C3080.02 787.191 3108.68 796.681 3131.65 801.808 3154.62 806.936 3177.26 810.645 3199.9 810.972 3222.54 811.299 3250 808.79 3267.5 803.772 3285 798.754 3297.69 788.5 3304.91 780.864 3312.12 773.227 3311.03 765.373 3310.81 757.955 3310.59 750.537 3308.08 743.228 3303.59 736.356 3299.11 729.483 3292.87 722.829 3283.9 716.72 3274.94 710.612 3264.65 705.266 3249.78 699.703 3234.9 694.139 3213.79 687.376 3194.65 683.339 3175.51 679.303 3154.73 676.467 3134.93 675.485 3115.13 674.504 3093.37 674.94 3075.86 677.449 3058.36 679.958 3041.96 685.085 3029.93 690.539 3017.89 695.994 3008.27 702.648 3003.67 710.175 2999.08 717.702 2998.97 727.411 3002.36 735.701 3005.75 743.992 3014.72 752.719 3024.02 759.919 3033.32 767.119 3044.15 773.228 3062.08 780.209Z" fill="#FCFEFD" fill-rule="evenodd" />
	</g>
</svg>
