<svg width="2263" height="1995" xmlns="http://www.w3.org/2000/svg" xmlns:xlink="http://www.w3.org/1999/xlink" xml:space="preserve" overflow="hidden">
	<defs>
		<clipPath id="clip0">
			<rect x="1678" y="168" width="2263" height="1995" />
		</clipPath>
	</defs>
	<g clip-path="url(#clip0)" transform="translate(-1678 -168)">
		<path d="M2804.7 1164.41 3182.23 841.006 3940.06 2162.02Z" fill="#FFFFFC" fill-rule="evenodd" />
		<path d="M2808.1 197.121 3185.19 846.204 1678.44 2162.13Z" fill="#3070B3" fill-rule="evenodd" />
		<path d="M2760.25 632.405C2774.11 624.558 2789.93 615.185 2819.17 606.901 2848.41 598.618 2898.49 588.047 2935.7 582.706 2972.91 577.365 3002.69 576.385 3042.41 574.859 3082.13 573.333 3134.06 570.063 3174 573.551 3213.93 577.039 3252.45 586.085 3282.02 595.785 3311.59 605.485 3332.97 619.98 3351.41 631.751 3369.85 643.522 3381.2 654.202 3392.66 666.409 3404.11 678.616 3411.31 688.861 3420.15 704.991 3428.99 721.121 3438.48 736.379 3445.68 763.191 3452.88 790.002 3460.85 838.938 3463.36 865.858 3465.87 892.778 3465.87 902.151 3460.74 924.711 3455.61 947.272 3444.7 979.096 3432.59 1001.22 3420.48 1023.35 3406.62 1042.53 3388.07 1057.46 3369.52 1072.39 3343.45 1082.96 3321.3 1090.81 3299.15 1098.66 3279.73 1100.95 3255.18 1104.54 3230.63 1108.14 3206.19 1111.3 3174 1112.39 3141.81 1113.48 3095.33 1113.15 3062.05 1111.08 3028.77 1109.01 3002.15 1104.11 2974.33 1099.96 2946.5 1095.82 2921.52 1093.21 2895.11 1086.23 2868.71 1079.26 2837.72 1068.47 2815.9 1058.11 2794.08 1047.76 2780.22 1039.26 2764.18 1024.11 2748.14 1008.96 2730.46 986.834 2719.66 967.217 2708.86 947.599 2704.17 927.218 2699.37 906.401 2694.57 885.584 2692.39 863.787 2690.86 842.316 2689.33 820.846 2687.91 800.356 2690.2 777.577 2692.49 754.798 2696.97 726.244 2704.61 705.645 2712.24 685.046 2726.54 665.646 2736.03 653.984 2745.52 642.322 2746.39 640.252 2760.25 632.405Z" fill-rule="evenodd" />
		<path d="M2792.86 694.792C2799.73 685.735 2799.29 683.334 2809.88 678.424 2820.46 673.514 2835.09 670.022 2856.37 665.33 2877.64 660.638 2904.16 654.309 2937.55 650.271 2970.94 646.234 3022.12 642.742 3056.71 641.105 3091.3 639.469 3121.09 640.014 3145.1 640.45 3169.11 640.887 3178.93 639.469 3200.75 643.724 3222.58 647.98 3256.73 658.892 3276.05 665.985 3295.36 673.078 3303.55 676.678 3316.64 686.281 3329.74 695.883 3344.14 708.869 3354.62 723.6 3365.09 738.331 3373.17 757.536 3379.5 774.667 3385.82 791.799 3389.86 807.621 3392.59 826.39 3395.32 845.159 3396.41 870.147 3395.86 887.279 3395.32 904.41 3394.45 912.921 3389.32 929.18 3384.19 945.439 3374.48 970.428 3365.09 984.831 3355.71 999.235 3349.71 1006.76 3333.01 1015.6 3316.31 1024.44 3289.58 1032.52 3264.92 1037.86 3240.26 1043.21 3211.45 1045.94 3185.04 1047.68 3158.63 1049.43 3130.26 1049.21 3106.47 1048.34 3082.68 1047.47 3042.31 1042.45 3042.31 1042.45 3020.7 1040.37 2997.46 1038.63 2976.84 1035.9 2956.21 1033.17 2942.35 1033.17 2918.57 1026.08 2894.78 1018.99 2854.62 1004.36 2834.1 993.343 2813.59 982.322 2805.51 971.628 2795.48 959.952 2785.44 948.276 2779.11 935.728 2773.87 923.288 2768.63 910.849 2766.67 900.264 2764.05 885.314 2761.43 870.365 2759.57 849.851 2758.16 833.592 2756.74 817.333 2753.79 804.566 2755.54 787.762 2757.28 770.957 2763.72 746.624 2768.63 732.766 2773.54 718.908 2785.98 703.849 2792.86 694.792Z" fill="#4A646E" fill-rule="evenodd" />
		<path d="M2821.88 675.643C2813.37 688.723 2825.8 713.139 2832.34 735.811 2838.88 758.483 2850.44 790.529 2861.12 811.676 2871.8 832.822 2885.43 849.826 2896.44 862.688 2907.45 875.55 2915.3 881.654 2927.18 888.848 2939.07 896.042 2947.13 901.71 2967.74 905.852 2988.34 909.994 3019.74 912.065 3050.81 913.7 3081.88 915.335 3125.37 916.643 3154.15 915.662 3182.93 914.682 3202.77 910.975 3223.48 907.814 3244.2 904.653 3259.13 902.255 3278.43 896.696 3297.72 891.137 3323.34 881.109 3339.26 874.46 3355.17 867.811 3364.88 862.47 3373.92 856.802 3382.97 851.134 3390.38 843.722 3393.55 840.452 3396.71 837.182 3393.87 842.523 3392.89 837.182 3391.91 831.841 3390.06 818.979 3387.66 808.406 3385.26 797.833 3382.32 785.734 3378.5 773.744 3374.69 761.753 3369.35 745.076 3364.77 736.465 3360.19 727.854 3355.06 727.091 3351.03 722.077 3347 717.063 3347.43 712.594 3340.57 706.381 3333.7 700.168 3321.16 691.775 3309.82 684.799 3298.49 677.823 3286.49 670.411 3272.54 664.525 3258.59 658.639 3241.8 653.407 3226.1 649.483 3210.4 645.559 3197.76 642.725 3178.35 640.981 3158.95 639.237 3134.42 638.91 3109.67 639.019 3084.93 639.128 3057.89 640 3029.87 641.635 3001.86 643.27 2965.99 646.213 2941.57 648.829 2917.15 651.445 2902.66 653.298 2883.36 657.331 2864.06 661.364 2830.38 662.563 2821.88 675.643Z" fill="#98C7DC" fill-rule="evenodd" />
		<path d="M3062.08 780.209C3080.02 787.191 3108.68 796.681 3131.65 801.808 3154.62 806.936 3177.26 810.645 3199.9 810.972 3222.54 811.299 3250 808.79 3267.5 803.772 3285 798.754 3297.69 788.5 3304.91 780.864 3312.12 773.227 3311.03 765.373 3310.81 757.955 3310.59 750.537 3308.08 743.228 3303.59 736.356 3299.11 729.483 3292.87 722.829 3283.9 716.72 3274.94 710.612 3264.65 705.266 3249.78 699.703 3234.9 694.139 3213.79 687.376 3194.65 683.339 3175.51 679.303 3154.73 676.467 3134.93 675.485 3115.13 674.504 3093.37 674.94 3075.86 677.449 3058.36 679.958 3041.96 685.085 3029.93 690.539 3017.89 695.994 3008.27 702.648 3003.67 710.175 2999.08 717.702 2998.97 727.411 3002.36 735.701 3005.75 743.992 3014.72 752.719 3024.02 759.919 3033.32 767.119 3044.15 773.228 3062.08 780.209Z" fill="#FCFEFD" fill-rule="evenodd" />
		<path d="M2958.42 355.366C2958.1 340.765 2951.66 329.869 2946.65 320.716 2941.64 311.563 2928.34 300.449 2928.34 300.449 2920.05 291.296 2911.55 279.093 2896.94 265.799 2882.34 252.506 2860.64 235.181 2840.7 220.689 2820.75 206.197 2791.43 187.347 2777.25 178.848 2763.08 170.348 2765.81 171.329 2755.67 169.695 2745.53 168.06 2728.2 167.189 2716.43 169.041 2704.66 170.893 2694.63 175.252 2685.04 180.809 2675.44 186.366 2666.29 196.499 2658.87 202.383 2651.46 208.267 2648.74 210.12 2640.56 216.113 2632.39 222.105 2621.81 232.348 2609.82 238.341 2597.83 244.334 2582.68 245.968 2568.62 252.07 2554.56 258.172 2538.97 266.453 2525.45 274.952 2511.93 283.451 2502.01 292.604 2487.52 303.064 2473.02 313.524 2451.98 324.857 2438.46 337.714 2424.95 350.572 2415.9 364.737 2406.42 380.21 2396.93 395.682 2388.32 412.68 2381.56 430.55 2374.8 448.42 2370.01 466.071 2365.87 487.428 2361.72 508.785 2353.55 527.635 2356.71 558.689 2359.87 589.744 2373.28 654.249 2384.83 673.753 2396.39 693.257 2417.43 679.637 2426.04 675.715 2434.65 671.792 2434.32 662.203 2436.5 650.218 2438.68 638.232 2439.34 621.887 2439.12 603.799 2438.9 585.712 2435.3 559.997 2435.19 541.691 2435.09 523.385 2436.2 505.597 2438.46 493.966 2440.73 482.334 2444.51 471.029 2448.77 471.901 2453.02 472.773 2456.31 492.032 2463.97 499.196 2471.63 506.361 2469.53 513.688 2494.71 514.886 2519.89 516.085 2539.4 524.148 2615.05 506.388 2690.7 488.627 2891.28 432.511 2948.61 408.322 3005.95 384.132 2958.75 369.967 2958.42 355.366Z" fill="#CE0000" fill-rule="evenodd" />
		<path d="M0 31.1529C0 13.9476 13.9476-4.81635e-15 31.1529-9.63271e-15L574.138 0C591.343-4.81635e-15 605.291 13.9476 605.291 31.1529L605.291 155.761C605.291 172.966 591.343 186.914 574.138 186.914L31.1529 186.914C13.9476 186.914-4.81635e-15 172.966-9.63269e-15 155.761Z" fill="#FCFEFD" fill-rule="evenodd" transform="matrix(-0.946342 0.323167 0.323167 0.946342 2983.93 306.709)" />
		<path d="M0 93.0835C-1.18508e-14 41.6749 41.6749-1.18508e-14 93.0835-2.37016e-14 144.492-4.74031e-14 186.167 41.6749 186.167 93.0835 186.167 144.492 144.492 186.167 93.0835 186.167 41.6749 186.167-5.92539e-14 144.492 0 93.0835Z" fill="#FCFEFD" fill-rule="evenodd" transform="matrix(-0.997085 -0.0763049 -0.0763049 0.997085 2516.95 653.157)" />
	</g>
</svg>
