<svg width="2263" height="1966" xmlns="http://www.w3.org/2000/svg" xmlns:xlink="http://www.w3.org/1999/xlink" xml:space="preserve" overflow="hidden">
    <defs>
        <clipPath id="clip0">
            <rect x="1678" y="197" width="2263" height="1966"/>
        </clipPath>
    </defs>
    <g clip-path="url(#clip0)" transform="translate(-1678 -197)">
        <path d="M2804.7 1164.41 3182.23 841.006 3940.06 2162.02Z" fill="#FFFFFC" fill-rule="evenodd"/><!--Right leg-->
        <path d="M2808.1 197.121 3185.19 846.204 1678.44 2162.13Z" fill="#3070B3" fill-rule="evenodd"/><!--Left leg-->
        <path d="M2987.28 715.91C2991.62 715.099 2997.22 713.901 3003.98 714.006 3010.74 714.112 3020.57 715.311 3027.86 716.545 3035.15 717.779 3042.26 718.872 3047.72 721.41 3053.18 723.948 3056.95 726.486 3060.61 731.775 3064.27 737.063 3067.44 748.097 3069.69 753.139 3071.95 758.18 3072.16 756.911 3074.13 762.023 3076.1 767.134 3079.77 776.724 3081.53 783.81 3083.29 790.896 3084.24 797.806 3084.7 804.539 3085.15 811.273 3085.15 818.042 3084.27 824.211 3083.39 830.38 3082.2 835.845 3079.41 841.556 3076.63 847.267 3072.19 853.084 3067.58 858.478 3062.97 863.872 3058.21 869.372 3051.73 873.919 3045.25 878.467 3034.83 882.98 3028.7 885.765 3022.57 888.55 3020.11 889.925 3014.97 890.63 3009.82 891.335 3004.26 890.982 2997.85 889.995 2991.44 889.008 2983.02 887.175 2976.51 884.707 2969.99 882.24 2963.97 878.89 2958.76 875.189 2953.55 871.487 2949.18 867.538 2945.23 862.497 2941.29 857.456 2937.52 850.687 2935.09 844.94 2932.66 839.194 2931.82 834.118 2930.65 828.019 2929.49 821.92 2928.44 814.269 2928.12 808.347 2927.8 802.424 2928.15 797.947 2928.75 792.482 2929.35 787.018 2930.41 780.919 2931.71 775.56 2933.01 770.202 2934.53 765.231 2936.57 760.33 2938.61 755.43 2941.04 750.6 2943.97 746.158 2946.89 741.716 2950.48 737.098 2954.11 733.678 2957.74 730.259 2961.75 728.108 2965.73 725.64 2969.71 723.173 2974.78 720.493 2977.99 718.872 2981.19 717.25 2982.95 716.721 2987.28 715.91Z" fill-rule="evenodd"/><path d="M3014.59 733.082C3012.47 736.388 3008.76 741.257 3007.17 745.877 3005.58 750.498 3005.23 755.829 3005.05 760.805 3004.87 765.78 3005.16 770.898 3006.11 775.732 3007.06 780.565 3008.94 786.003 3010.77 789.806 3012.61 793.609 3014.52 795.742 3017.13 798.549 3019.75 801.357 3023.21 804.911 3026.46 806.653 3029.71 808.394 3032.97 809.034 3036.64 808.998 3040.32 808.963 3044.66 808.43 3048.51 806.44 3052.37 804.449 3056.54 801.286 3059.75 797.057 3062.97 792.827 3066.11 786.288 3067.81 781.063 3069.5 775.839 3069.72 770.934 3069.93 765.709 3070.14 760.485 3069.89 754.123 3069.08 749.716 3068.27 745.309 3066.5 742.217 3065.05 739.267 3063.6 736.317 3062.08 734.255 3060.39 732.016 3058.69 729.777 3057.17 727.68 3054.87 725.832 3052.58 723.984 3049.61 722.065 3046.61 720.927 3043.6 719.79 3039.89 719.079 3036.85 719.008 3033.81 718.937 3031.2 719.328 3028.37 720.501 3025.54 721.674 3022.4 723.948 3019.89 726.045 3017.38 728.142 3016.71 729.777 3014.59 733.082Z" fill="#FFFFFF" fill-rule="evenodd"/><path d="M2726.28 715.91C2730.62 715.099 2736.22 713.901 2742.98 714.006 2749.74 714.112 2759.57 715.311 2766.86 716.545 2774.15 717.779 2781.26 718.872 2786.72 721.41 2792.18 723.948 2795.95 726.486 2799.61 731.775 2803.27 737.063 2806.44 748.097 2808.69 753.139 2810.95 758.18 2811.16 756.911 2813.13 762.023 2815.1 767.134 2818.77 776.724 2820.53 783.81 2822.29 790.896 2823.24 797.806 2823.7 804.539 2824.15 811.273 2824.15 818.042 2823.27 824.211 2822.39 830.38 2821.2 835.845 2818.41 841.556 2815.63 847.267 2811.19 853.084 2806.58 858.478 2801.97 863.872 2797.21 869.372 2790.73 873.919 2784.25 878.467 2773.83 882.98 2767.7 885.765 2761.57 888.55 2759.11 889.925 2753.97 890.63 2748.82 891.335 2743.26 890.982 2736.85 889.995 2730.44 889.008 2722.02 887.175 2715.51 884.707 2708.99 882.24 2702.97 878.89 2697.76 875.189 2692.55 871.487 2688.18 867.538 2684.23 862.497 2680.29 857.456 2676.52 850.687 2674.09 844.94 2671.66 839.194 2670.82 834.118 2669.65 828.019 2668.49 821.92 2667.44 814.269 2667.12 808.347 2666.8 802.424 2667.15 797.947 2667.75 792.482 2668.35 787.018 2669.41 780.919 2670.71 775.56 2672.01 770.202 2673.53 765.231 2675.57 760.33 2677.61 755.43 2680.04 750.6 2682.97 746.158 2685.89 741.716 2689.48 737.098 2693.11 733.678 2696.74 730.259 2700.75 728.108 2704.73 725.64 2708.71 723.173 2713.78 720.493 2716.99 718.872 2720.19 717.25 2721.95 716.721 2726.28 715.91Z" fill-rule="evenodd"/><path d="M2753.59 733.082C2751.47 736.388 2747.76 741.257 2746.17 745.877 2744.58 750.498 2744.23 755.829 2744.05 760.805 2743.87 765.78 2744.16 770.898 2745.11 775.732 2746.06 780.565 2747.94 786.003 2749.77 789.806 2751.61 793.609 2753.52 795.742 2756.14 798.549 2758.75 801.357 2762.21 804.911 2765.46 806.653 2768.71 808.394 2771.97 809.034 2775.64 808.998 2779.32 808.963 2783.66 808.43 2787.51 806.44 2791.37 804.449 2795.54 801.286 2798.75 797.057 2801.97 792.827 2805.11 786.288 2806.81 781.063 2808.5 775.839 2808.72 770.934 2808.93 765.709 2809.14 760.485 2808.89 754.123 2808.08 749.716 2807.27 745.309 2805.5 742.217 2804.05 739.267 2802.6 736.317 2801.08 734.255 2799.39 732.016 2797.69 729.777 2796.17 727.68 2793.87 725.832 2791.58 723.984 2788.61 722.065 2785.61 720.927 2782.6 719.79 2778.89 719.079 2775.85 719.008 2772.81 718.937 2770.2 719.328 2767.37 720.501 2764.55 721.674 2761.4 723.948 2758.89 726.045 2756.38 728.142 2755.71 729.777 2753.59 733.082Z" fill="#FFFFFF" fill-rule="evenodd"/>
    </g>
</svg>