<svg width="2397" height="2423" xmlns="http://www.w3.org/2000/svg" xmlns:xlink="http://www.w3.org/1999/xlink" xml:space="preserve" overflow="hidden">
    <defs>
        <clipPath id="clip0"><rect x="978" y="2" width="2397" height="2423"/>
        </clipPath>
    </defs>
    <g clip-path="url(#clip0)" transform="translate(-978 -2)">
        <path d="M1391.89 714.966C1159.74 658.931 1375.9 525.456 1390.31 466.737 1404.72 408.019 1434.79 401.145 1478.35 362.654 1521.91 324.163 1583.03 280.434 1651.68 235.79 1720.33 191.146 1811.77 133.737 1890.25 94.7873 1968.72 55.8379 2046.28 4.64732 2122.53 2.09424 2198.77-0.45885 2288.32 49.4884 2347.73 79.4695 2407.14 109.451 2438.26 154.88 2479 181.981 2519.75 209.082 2554.59 221.716 2592.19 242.075 2629.79 262.433 2671.32 282.922 2704.6 304.132 2737.88 325.341 2767.48 349.104 2791.85 369.331 2816.22 389.559 2830.76 406.579 2850.81 425.497 2870.85 444.415 2887.62 457.311 2912.12 482.841 2936.62 508.37 2965.38 544.505 2997.8 578.676 3030.22 612.847 3078.96 645.577 3106.67 687.865 3134.38 730.153 3142.5 789.788 3164.05 832.403 3185.6 875.018 3218.42 913.838 3235.97 943.557 3253.53 973.276 3261.13 989.313 3269.38 1010.72 3277.64 1032.12 3281.17 1050 3285.5 1071.99 3289.82 1093.99 3289.36 1112.05 3295.32 1142.69 3301.28 1173.32 3315.96 1200.88 3321.26 1255.81 3326.57 1310.73 3338.75 1395.04 3327.16 1472.22 3315.56 1549.4 3271.87 1659.7 3251.7 1718.88 3231.52 1778.05 3229.42 1801.88 3206.1 1827.28 3182.79 1852.68 3145.32 1876.51 3111.78 1871.27 3078.24 1866.03 3024.26 1814.19 3004.87 1795.86 2985.48 1777.53 2997.28 1780.67 2995.44 1761.3 2993.61 1741.92 2986.27 1721.23 2993.87 1679.6 3001.47 1637.97 3032.65 1562.82 3041.03 1511.5 3049.42 1460.18 3046.8 1430.33 3044.18 1371.67 3041.56 1313.02 3039.72 1178.17 3025.31 1159.58 3010.9 1140.99 2962.69 1262.48 2957.71 1260.13 2952.73 1257.77 3025.31 1252.01 2764.34 1161.15 2503.37 1070.29 1624.03 771 1391.89 714.966Z" fill="#CE0000" fill-rule="evenodd"/><path d="M1157.78 551.783C1181.38 496.799 1245.09 471.359 1300.07 494.959L3035.3 1239.78C3090.28 1263.38 3115.72 1327.09 3092.12 1382.07L2921.19 1780.28C2897.59 1835.27 2833.89 1860.71 2778.91 1837.11L1043.68 1092.28C988.695 1068.68 963.255 1004.98 986.856 949.996Z" fill="#FCFEFD" fill-rule="evenodd"/>
        <path d="M2728 2101C2728 1922.06 2872.84 1777 3051.5 1777 3230.16 1777 3375 1922.06 3375 2101 3375 2279.94 3230.16 2425 3051.5 2425 2872.84 2425 2728 2279.94 2728 2101Z" fill="#FCFEFD" fill-rule="evenodd"/>
    </g>
</svg>