<svg width="2586" height="1096" xmlns="http://www.w3.org/2000/svg" xmlns:xlink="http://www.w3.org/1999/xlink" xml:space="preserve" overflow="hidden">
    <defs>
        <clipPath id="clip0"><rect x="1095" y="597" width="2586" height="1096"/></clipPath>
    </defs>
    <g clip-path="url(#clip0)" transform="translate(-1095 -597)">
        <path d="M3075.41 608.829C3102.26 603.808 3136.96 596.386 3178.87 597.041 3220.77 597.695 3281.67 605.117 3326.85 612.758 3372.03 620.398 3416.12 627.166 3449.95 642.883 3483.78 658.6 3507.13 674.318 3529.83 707.062 3552.53 739.807 3572.17 808.134 3586.14 839.35 3600.11 870.567 3601.42 862.708 3613.64 894.361 3625.87 926.014 3648.56 985.391 3659.48 1029.27 3670.39 1073.15 3676.28 1115.93 3679.12 1157.63 3681.96 1199.32 3681.96 1241.24 3676.5 1279.44 3671.04 1317.64 3663.62 1351.48 3646.38 1386.84 3629.14 1422.2 3601.64 1458.22 3573.05 1491.62 3544.45 1525.02 3514.99 1559.08 3474.83 1587.24 3434.67 1615.4 3370.06 1643.34 3332.09 1660.58 3294.11 1677.83 3278.83 1686.34 3246.97 1690.71 3215.1 1695.07 3180.62 1692.89 3140.89 1686.78 3101.17 1680.67 3049 1669.32 3008.63 1654.04 2968.25 1638.75 2930.93 1618.02 2898.62 1595.09 2866.32 1572.17 2839.26 1547.72 2814.81 1516.51 2790.37 1485.29 2767.01 1443.38 2751.95 1407.8 2736.89 1372.21 2731.65 1340.78 2724.45 1303.01 2717.25 1265.25 2710.7 1217.88 2708.74 1181.2 2706.77 1144.53 2708.96 1116.81 2712.67 1082.97 2716.38 1049.13 2722.92 1011.37 2731 978.187 2739.08 945.006 2748.46 914.226 2761.12 883.883 2773.78 853.54 2788.84 823.633 2806.95 796.128 2825.07 768.622 2847.33 740.025 2869.81 718.85 2892.29 697.675 2917.18 684.359 2941.84 669.078 2966.5 653.798 2997.93 637.207 3017.79 627.166 3037.65 617.124 3048.57 613.849 3075.41 608.829Z" fill-rule="evenodd"/><path d="M3246.17 717.528C3233.09 737.838 3210.2 767.756 3200.39 796.146 3190.58 824.536 3188.4 857.293 3187.31 887.866 3186.22 918.44 3187.96 949.887 3193.85 979.587 3199.73 1009.29 3211.29 1042.7 3222.62 1066.07 3233.96 1089.43 3245.73 1102.54 3261.86 1119.79 3277.99 1137.04 3299.36 1158.88 3319.41 1169.58 3339.47 1180.28 3359.53 1184.21 3382.2 1183.99 3404.87 1183.77 3431.68 1180.5 3455.45 1168.27 3479.21 1156.04 3504.93 1136.6 3524.77 1110.62 3544.61 1084.63 3564.01 1044.45 3574.48 1012.34 3584.94 980.242 3586.25 950.105 3587.56 918.003 3588.86 885.901 3587.34 846.81 3582.32 819.731 3577.31 792.652 3566.41 773.653 3557.47 755.527 3548.53 737.401 3539.16 724.735 3528.7 710.977 3518.23 697.219 3508.86 684.334 3494.69 672.979 3480.52 661.623 3462.2 649.83 3443.67 642.842 3425.14 635.854 3402.25 631.486 3383.51 631.05 3364.76 630.613 3348.63 633.015 3331.19 640.222 3313.75 647.428 3294.34 661.404 3278.87 674.289 3263.39 687.173 3259.25 697.219 3246.17 717.528Z" fill="#FFFFFF" fill-rule="evenodd"/><path d="M1462.41 608.829C1489.26 603.808 1523.96 596.386 1565.87 597.041 1607.77 597.695 1668.67 605.117 1713.85 612.758 1759.03 620.398 1803.12 627.166 1836.95 642.883 1870.78 658.6 1894.13 674.318 1916.83 707.062 1939.53 739.807 1959.17 808.134 1973.14 839.35 1987.11 870.567 1988.42 862.708 2000.64 894.361 2012.87 926.014 2035.56 985.391 2046.48 1029.27 2057.39 1073.15 2063.28 1115.93 2066.12 1157.63 2068.96 1199.32 2068.96 1241.24 2063.5 1279.44 2058.05 1317.64 2050.62 1351.48 2033.38 1386.84 2016.14 1422.2 1988.64 1458.22 1960.05 1491.62 1931.45 1525.02 1901.99 1559.08 1861.83 1587.24 1821.67 1615.4 1757.07 1643.34 1719.09 1660.58 1681.11 1677.83 1665.83 1686.34 1633.97 1690.71 1602.1 1695.07 1567.62 1692.89 1527.89 1686.78 1488.17 1680.67 1436 1669.32 1395.63 1654.04 1355.25 1638.75 1317.93 1618.02 1285.62 1595.09 1253.32 1572.17 1226.26 1547.72 1201.81 1516.51 1177.37 1485.29 1154.01 1443.38 1138.95 1407.8 1123.89 1372.21 1118.65 1340.78 1111.45 1303.01 1104.25 1265.25 1097.7 1217.88 1095.74 1181.2 1093.77 1144.53 1095.96 1116.81 1099.67 1082.97 1103.38 1049.13 1109.92 1011.37 1118 978.187 1126.07 945.006 1135.46 914.226 1148.12 883.883 1160.78 853.54 1175.84 823.633 1193.95 796.128 1212.07 768.622 1234.33 740.025 1256.81 718.85 1279.29 697.675 1304.18 684.359 1328.84 669.078 1353.5 653.798 1384.93 637.207 1404.79 627.166 1424.65 617.124 1435.57 613.849 1462.41 608.829Z" fill-rule="evenodd"/><path d="M1632.31 717.528C1619.2 737.838 1596.25 767.756 1586.42 796.146 1576.58 824.536 1574.4 857.293 1573.31 887.866 1572.21 918.44 1573.96 949.887 1579.86 979.587 1585.76 1009.29 1597.35 1042.7 1608.71 1066.07 1620.08 1089.43 1631.88 1102.54 1648.05 1119.79 1664.22 1137.04 1685.64 1158.88 1705.74 1169.58 1725.85 1180.28 1745.96 1184.21 1768.69 1183.99 1791.41 1183.77 1818.29 1180.5 1842.12 1168.27 1865.94 1156.04 1891.73 1136.6 1911.61 1110.62 1931.5 1084.63 1950.95 1044.45 1961.44 1012.34 1971.93 980.242 1973.24 950.105 1974.55 918.003 1975.87 885.901 1974.34 846.81 1969.31 819.731 1964.28 792.652 1953.36 773.653 1944.39 755.527 1935.43 737.401 1926.04 724.735 1915.55 710.977 1905.06 697.219 1895.66 684.334 1881.45 672.979 1867.25 661.623 1848.89 649.83 1830.31 642.842 1811.74 635.854 1788.79 631.486 1770 631.05 1751.2 630.613 1735.03 633.015 1717.55 640.222 1700.06 647.428 1680.61 661.404 1665.1 674.289 1649.58 687.173 1645.43 697.219 1632.31 717.528Z" fill="#FFFFFF" fill-rule="evenodd"/>
    </g>
</svg>