<svg width="1933" height="1049" xmlns="http://www.w3.org/2000/svg" xmlns:xlink="http://www.w3.org/1999/xlink" xml:space="preserve" overflow="hidden">
    <defs>
        <clipPath id="clip0">
            <rect x="832" y="703" width="1933" height="1049"/>
        </clipPath>
    </defs>
    <g clip-path="url(#clip0)" transform="translate(-832 -703)">
        <path d="M1186.1 740.549C1198.71 755.114 1220.98 783.263 1238.18 800.448 1255.37 817.632 1273.55 831.379 1289.27 843.653 1304.99 855.928 1314.82 864.11 1332.51 874.094 1350.19 884.077 1371.32 894.387 1395.39 903.552 1419.47 912.717 1453.04 923.027 1476.95 929.083 1500.86 935.138 1525.1 937.593 1538.85 939.884 1552.61 942.175 1554.58 942.503 1559.49 942.83 1564.4 943.157 1563.58 945.121 1568.33 941.848 1573.08 938.575 1581.76 930.883 1587.98 923.191 1594.21 915.499 1596.5 906.334 1605.67 895.696 1614.84 885.059 1628.11 871.639 1643.01 859.365 1657.91 847.09 1674.62 836.125 1695.09 822.05 1715.56 807.976 1739.8 788.173 1765.84 774.917 1791.88 761.661 1823.81 751.678 1851.32 742.513 1878.84 733.348 1903.73 725.656 1930.91 719.928 1958.1 714.2 1982.99 710.927 2014.43 708.145 2045.88 705.362 2083.87 702.089 2119.57 703.234 2155.27 704.38 2194.74 709.126 2228.64 715.018 2262.54 720.91 2289.24 728.274 2322.97 738.585 2356.71 748.895 2395.36 759.861 2431.06 776.881 2466.76 793.901 2505.9 818.777 2537.18 840.707 2568.46 862.637 2596.3 886.531 2618.74 908.462 2641.17 930.392 2656.89 952.159 2671.8 972.288 2686.7 992.418 2697.34 1008.95 2708.15 1029.24 2718.96 1049.54 2728.62 1073.27 2736.65 1094.05 2744.67 1114.83 2752.37 1139.55 2756.3 1153.95 2760.23 1168.35 2759.41 1174.08 2760.23 1180.46 2761.05 1186.84 2769.89 1187.17 2761.21 1192.24 2752.53 1197.32 2729.61 1204.68 2708.15 1210.9 2686.7 1217.12 2632.49 1229.56 2632.49 1229.56 2597.61 1238.72 2541.77 1255.74 2498.86 1265.89 2455.95 1276.04 2375.05 1290.44 2375.05 1290.44L2283.67 1307.13 2176.56 1327.75C2146.76 1333.15 2121.38 1336.92 2104.83 1339.54 2088.29 1342.16 2083.54 1342.81 2077.32 1343.46 2071.1 1344.12 2070.12 1343.3 2067.5 1343.46 2064.88 1343.63 2060.13 1341.83 2061.6 1344.45 2063.07 1347.06 2069.79 1353.61 2076.34 1359.18 2082.89 1364.74 2100.9 1377.83 2100.9 1377.83 2116.79 1390.27 2146.76 1415.15 2171.65 1433.8 2196.54 1452.46 2222.75 1470.79 2250.26 1489.78 2277.77 1508.76 2310.03 1530.03 2336.73 1547.71 2363.42 1565.39 2390.77 1583.55 2410.42 1595.83 2430.08 1608.1 2439.74 1612.68 2454.64 1621.36 2469.54 1630.03 2490.01 1642.63 2499.84 1647.87 2509.67 1653.11 2510.98 1652.12 2513.6 1652.78 2516.22 1653.43 2519.17 1648.36 2515.56 1651.8 2511.96 1655.23 2503.94 1666.69 2491.98 1673.4 2480.02 1680.11 2443.83 1692.06 2443.83 1692.06 2423.2 1700.24 2392.57 1714.48 2368.17 1722.5 2343.77 1730.52 2326.9 1735.59 2297.42 1740.17 2267.95 1744.75 2223.4 1748.19 2191.3 1749.99 2159.2 1751.79 2136.77 1752.94 2104.83 1750.97 2072.9 1749.01 2029.83 1743.61 1999.7 1738.21 1969.56 1732.81 1949.42 1726.42 1924.04 1718.57 1898.65 1710.71 1874.58 1702.53 1847.39 1691.07 1820.21 1679.62 1785.65 1664.07 1760.92 1649.83 1736.19 1635.59 1720.8 1622.83 1699.02 1605.64 1677.24 1588.46 1650.54 1566.2 1630.24 1546.73 1609.93 1527.25 1592.9 1509.09 1577.18 1488.79 1561.45 1468.5 1548.03 1447.39 1535.91 1424.97 1523.79 1402.55 1512.98 1376.52 1504.46 1354.27 1495.95 1332.01 1489.07 1307.46 1484.81 1291.42 1480.55 1275.38 1479.57 1265.89 1478.92 1258.04 1478.26 1250.18 1481.04 1247.56 1480.88 1244.29 1480.72 1241.02 1478.92 1239.54 1477.93 1238.4 1476.95 1237.25 1480.88 1238.72 1474.99 1237.41 1469.09 1236.11 1442.56 1230.54 1442.56 1230.54 1424.71 1226.61 1390.32 1220.39 1367.88 1213.85 1345.45 1207.3 1328.25 1199.61 1307.94 1191.26 1287.64 1182.92 1267.98 1174.9 1246.04 1163.77 1224.09 1152.64 1196.75 1136.6 1176.27 1124.49 1155.8 1112.38 1143.36 1106 1123.21 1091.1 1103.07 1076.21 1077.52 1054.28 1055.41 1035.13 1033.31 1015.98 1008.9 994.873 990.562 976.216 972.22 957.559 961.903 944.139 945.362 923.191 928.821 902.243 905.075 870.002 891.319 850.527 877.562 831.052 870.357 819.759 862.823 806.339 855.29 792.919 850.05 778.845 846.119 770.007 842.189 761.17 841.534 758.06 839.241 753.314 836.948 748.568 830.397 743.331 832.363 741.531 834.328 739.73 837.603 742.84 851.032 742.513 864.461 742.185 912.936 739.567 912.936 739.567 938.648 737.93 1005.3 732.693 1005.3 732.693 1039.69 730.074 1093.08 727.128 1119.28 723.855 1145.49 720.582 1151.22 709.617 1162.52 713.054 1173.82 716.491 1173.49 725.983 1186.1 740.549Z" fill="#E43817" fill-rule="evenodd"/>
    </g>
</svg>