<?xml version="1.0" encoding="UTF-8" standalone="no"?>
<!-- Created with Inkscape (http://www.inkscape.org/) -->

<svg
   width="2000.99994mm"
   height="922.2749mm"
   viewBox="0 0 999.99994 461.2749"
   version="1.1"
   id="svg1"
   xml:space="preserve"
   inkscape:export-filename="shy.svg"
   inkscape:export-xdpi="96"
   inkscape:export-ydpi="96"
   xmlns:inkscape="http://www.inkscape.org/namespaces/inkscape"
   xmlns:sodipodi="http://sodipodi.sourceforge.net/DTD/sodipodi-0.dtd"
   xmlns="http://www.w3.org/2000/svg"
   xmlns:svg="http://www.w3.org/2000/svg"><sodipodi:namedview
     id="namedview1"
     pagecolor="#ffffff"
     bordercolor="#000000"
     borderopacity="0.25"
     inkscape:showpageshadow="2"
     inkscape:pageopacity="0.0"
     inkscape:pagecheckerboard="0"
     inkscape:deskcolor="#d1d1d1"
     inkscape:document-units="mm"
     inkscape:export-bgcolor="#ffffff00"
     inkscape:zoom="22.627417"
     inkscape:cx="95.017474"
     inkscape:cy="305.58061"
     inkscape:window-width="1920"
     inkscape:window-height="1009"
     inkscape:window-x="2552"
     inkscape:window-y="174"
     inkscape:window-maximized="1"
     inkscape:current-layer="layer1" /><defs
     id="defs1" /><g
     inkscape:label="Layer 1"
     inkscape:groupmode="layer"
     id="layer1"
     transform="translate(0,0)"><path
       d="m 306.3543,461.2713 q -23.88682,0 -49.86081,-0.92807 -25.74212,-0.93184 -51.94809,-3.94491 -25.97397,-2.78307 -51.25238,-8.34903 -25.27821,-5.56601 -48.00549,-14.84228 -22.7272,-9.276 -41.975877,-22.72728 Q 44.063081,397.26089 29.916492,378.47611 15.769909,359.69129 7.8850131,335.10873 2.2346923e-5,310.29422 2.2346923e-5,278.75436 q 0,-25.97399 7.652990853077,-49.86084 7.8849958,-24.11875 21.7995788,-44.52681 13.914691,-20.64009 33.163258,-36.8739 19.48048,-16.46577 42.43968,-27.3655 30.14845,-13.91466 52.41183,-34.554763 22.26353,-20.640076 39.6568,-48.701244 5.102,-8.116988 10.668,-14.842285 5.798,-6.956997 12.75503,-11.827492 6.957,-4.8699978 15.3061,-7.4209938 8.34899,-2.7799925081 18.55294,-2.7799925081 11.36366,0 22.26354,4.4059897081 11.13171,4.1739985 19.71238,11.5955926 8.58083,7.420997 13.68278,17.62519 5.33373,10.204085 5.33373,22.263482 0,7.884998 -2.0871,15.306074 -2.08723,7.188997 -5.33385,14.146591 -3.24734,6.95698 -7.42082,13.682768 -3.943,6.492893 -7.8847,12.986993 h 140.07425 q 6.72466,0 12.75509,0.7 6.03,0.7 12.29132,2.78272 9.04508,3.24715 16.69753,9.04463 7.88491,5.7982 13.45083,13.45082 5.79825,7.65301 8.81276,16.69753 3.24737,9.04508 3.24737,18.7848 0,5.79814 -1.85439,11.82751 -1.62236,6.03006 -4.63811,11.82754 -3.01491,5.79835 -6.95701,10.89982 -3.94342,4.87 -8.11693,8.58083 -8.81298,7.65281 -19.71262,11.82744 -10.6679,4.17368 -22.49538,4.17368 h -34.55526 q 3.47956,10.436 3.47956,21.56766 0,12.75508 -5.10182,24.11881 -5.10183,11.13165 -14.84232,19.48047 6.03,14.61034 6.03,29.91649 0,13.45084 -5.56638,25.27831 -5.3338,11.8274 -16.00189,20.17624 1.85474,6.49385 3.01474,12.98699 1.15956,6.72477 1.15956,13.45086 v 1.85531 q -1.62379,12.52334 -7.65379,23.42311 -6.03,10.89983 -15.07429,19.01674 -9.044,8.11688 -20.64004,12.75508 -11.3636,4.63829 -24.11868,4.63829 z m -19.24854,-80.00933 q -6.95698,0 -11.82754,-4.87 -4.87,-4.86999 -4.87,-11.82746 0,-6.72538 4.87,-11.59552 5.10167,-4.87 11.82754,-4.87 h 60.76059 q 4.63834,-4.17372 7.42078,-9.73999 3.01535,-5.79824 3.01535,-12.29127 0,-9.97199 -5.3339,-18.08905 h -44.75893 q -6.72452,0 -11.82752,-4.87 -4.87,-5.10186 -4.87,-11.82751 0,-6.95715 4.87,-11.82747 4.87,-4.87 11.82752,-4.87 h 52.8756 q 6.26193,-3.94298 8.58087,-9.97199 2.31956,-6.02999 2.31956,-12.98698 0,-2.78316 -0.92824,-5.79813 -0.70173,-3.24686 -2.32093,-6.26195 -1.62314,-3.01492 -3.71096,-5.10202 -2.08705,-2.31899 -4.87009,-3.47899 -3.71097,-0.23048 -11.82749,-1.16011 -8.11718,-0.92979 -18.32115,-2.55077 -9.97199,-1.623 -20.64009,-3.942 -10.66785,-2.319 -19.48051,-5.334 -8.81301,-3.24699 -14.61033,-7.18905 -5.56615,-3.94295 -5.56615,-8.81293 0,-3.47956 2.31956,-5.79809 2.55044,-2.31956 6.03,-2.31956 h 139.61031 q 10.43599,0 20.64006,-0.92811 10.2041,-1.16 20.40822,-3.71044 1.16009,-1.16 2.55044,-3.01469 1.3921,-2.08711 2.55044,-4.17377 1.39166,-2.31956 2.08728,-4.40631 0.9285,-2.31956 0.9285,-4.17359 0,-5.79813 -2.55043,-10.89978 -2.55088,-5.33378 -6.9575,-9.045 -4.17368,-3.9418 -9.74004,-6.03007 -5.3339,-2.31921 -10.89983,-2.31921 -43.83119,0 -87.43048,0.22894 -43.36723,0 -87.19838,0 -6.7247,0 -11.59562,-4.63828 -4.86999,-4.87 -4.86999,-11.59557 0,-5.79813 5.56616,-14.84231 5.79807,-9.27635 12.75512,-19.480563 6.95697,-10.204066 12.52318,-20.408177 5.79815,-10.435992 5.79815,-18.55287 0,-4.869999 -2.78281,-8.812997 -2.55048,-4.173753 -6.72501,-7.188739 -3.94302,-3.246999 -8.81284,-4.869999 -4.87,-1.854999 -9.27626,-1.854999 -5.79813,0 -10.20408,1.854999 -4.40576,1.855004 -7.88459,5.102003 -3.47939,3.014999 -6.49395,7.189002 -2.78301,3.942021 -5.56598,8.349015 -20.17517,32.466558 -46.1492,55.889525 -25.97398,23.4229 -60.76065,39.42484 -18.55288,8.813 -34.090874,22.03146 -15.537991,13.219 -26.669785,29.68457 -11.13168,16.46575 -17.393276,35.94629 -6.029998,19.24862 -6.029998,40.1206 0,27.1335 7.188998,48.00549 7.42099,20.87199 20.408191,36.40997 12.986991,15.53814 30.612226,26.20599 17.625208,10.89981 38.265298,18.08914 20.64006,7.42072 43.13548,11.36352 22.72722,4.17369 45.68641,6.03 22.95918,2.0871 45.2227,2.55044 22.49527,0.46377 42.43965,0.46377 5.56639,0 11.3636,-2.55044 6.03,-2.31956 11.13179,-6.26183 5.10187,-3.94277 8.34908,-9.27625 3.24715,-5.33374 3.24715,-11.36368 0,-9.04519 -3.47956,-17.1614 z"
       id="text1"
       style="font-size:4.74954px;opacity:1;fill:#000000;stroke:#000000;stroke-width:0"/><path
       d="m 693.64522,461.2713 q -12.0593,0 -24.11881,-4.63833 -11.8271,-4.63763 -20.64008,-12.75469 -3.71009,-3.24737 -7.88491,-8.34896 -3.94298,-5.10198 -7.18929,-11.13168 -3.24562,-5.79796 -5.56548,-11.82749 -2.08553,-6.03 -2.08553,-11.13171 0,-7.18929 0.92807,-14.37845 1.16096,-7.18926 3.48026,-13.9147 -10.43688,-8.11694 -16.2346,-20.1762 -5.56574,-12.05935 -5.56574,-25.27833 0,-15.53799 6.26193,-29.9165 -9.27733,-7.65282 -14.61136,-18.78483 -5.33434,-11.36359 -5.33434,-23.42299 0,-6.03 0.7,-11.59559 0.7,-5.79812 2.55,-11.36358 h -34.32179 q -11.82732,0 -22.72718,-4.17377 -10.66706,-4.17416 -19.47982,-11.82769 -4.17368,-3.71101 -8.11697,-8.81301 -3.94166,-5.102 -6.95697,-10.66791 -3.01491,-5.79802 -4.87,-11.82753 -1.85438,-6.03 -1.85438,-11.82741 0,-9.74 3.24736,-18.78489 3.24737,-9.04505 8.81289,-16.69751 5.56623,-7.65273 13.21877,-13.45075 7.88496,-5.79805 16.92956,-9.04482 6.26171,-2.31951 12.29122,-2.78302 6.26162,-0.7 12.98688,-0.7 h 140.07412 q -3.9421,-6.26216 -8.11684,-12.987203 -4.17281,-6.724997 -7.42127,-13.682802 -3.2478,-7.189006 -5.33355,-14.61042 -2.08596,-7.420998 -2.08596,-14.842276 0,-11.8275 5.10105,-22.031589 5.33289,-10.43596 13.91407,-17.857053 8.58061,-7.4210101 19.48034,-11.5956073 11.12294,-4.401988144889 22.48649,-4.401988144889 10.20403,0 18.5528,2.783000544889 8.34925,2.5509956 15.30609,7.4209929 6.95785,4.869998 12.75513,11.595594 5.79894,6.724997 10.89986,15.074185 17.39311,28.061181 39.6567,48.701218 22.49569,20.408208 52.41169,34.554838 23.19153,10.89977 42.4399,27.36541 19.2485,16.23376 33.16389,36.87391 13.9139,20.40805 21.56714,44.52681 7.65342,23.88692 7.65342,49.86091 0,31.77178 -7.88798,56.3543 -7.88658,24.58259 -22.03039,43.36741 -14.14591,18.78473 -33.39424,32.23555 -19.24771,13.45085 -41.97512,22.49538 -22.72753,9.27599 -48.00564,14.84234 -25.2785,5.56601 -51.48428,8.34904 -25.97416,3.01491 -51.94783,3.94298 -25.7424,0.93026 -49.62911,0.93026 z m -30.6124,-80.00933 q -3.47983,8.117 -3.47983,17.16137 0,5.79837 3.24649,11.13182 3.24649,5.3339 8.34912,9.27613 5.10114,4.17381 10.89991,6.49299 6.02965,2.55044 11.59539,2.55044 19.94447,0 42.20779,-0.46114 22.49539,-0.46115 45.45473,-2.55044 22.95907,-1.85285 45.68656,-6.02769 22.72683,-3.94307 43.13533,-11.3634 20.64004,-7.18893 38.26521,-18.08873 17.85776,-10.66789 30.6128,-26.20599 12.98679,-15.538 20.40801,-36.40998 7.41891,-20.87198 7.41891,-48.00552 0,-20.87199 -6.26338,-40.12058 -6.2575,-19.25055 -17.38964,-35.94812 -11.13079,-16.69757 -26.66977,-29.91642 -15.53732,-13.2189 -34.09052,-21.79968 -34.78656,-16.00182 -60.76028,-39.42481 -25.9742,-23.422959 -46.15016,-55.890539 -2.78202,-4.406078 -5.79912,-8.580989 -2.78246,-4.173998 -6.26009,-7.188996 -3.47894,-3.014999 -7.88482,-4.869998 -4.4036,-1.854999 -10.20403,-1.854999 -4.4036,0 -9.27618,1.854999 -4.63956,1.622999 -8.81307,4.869998 -3.9443,3.014999 -6.72438,7.188996 -2.55,3.941973 -2.55,8.812988 0,4.869999 2.55,11.363698 2.78157,6.492989 6.95684,13.682653 4.17368,6.95698 8.81311,14.146609 4.63855,7.18917 8.81254,13.68268 4.175,6.26169 6.72543,11.36368 2.78202,5.10177 2.78202,7.88483 0,7.18932 -4.63723,12.29121 -4.63943,5.10178 -12.05904,5.10178 -43.83134,0 -87.19869,0 -43.36731,-0.22895 -87.19848,-0.22895 -5.56609,0 -11.13171,2.31956 -5.33377,2.08715 -9.73999,6.03 -4.17281,3.71044 -6.72496,9.04508 -2.55043,5.10182 -2.55043,10.89976 0,1.62316 0.7,3.94176 0.92894,2.08715 2.0864,4.40625 1.16096,2.31957 2.55044,4.40613 1.3921,1.85461 2.55043,3.01465 10.20399,2.55044 20.40824,3.71044 10.43588,0.9282 20.87197,0.9282 h 139.60912 q 3.47938,0 5.79907,2.55044 2.54956,2.31956 2.54956,5.79819 0,4.63824 -5.79824,8.58087 -5.56671,3.94176 -14.3789,6.95704 -8.81263,3.01504 -19.71232,5.56632 -10.66793,2.31956 -20.64003,3.9417 -9.97197,1.62285 -18.08925,2.55044 -8.11684,0.92812 -11.82737,1.16 -2.78245,1.16 -5.10157,3.47956 -2.08553,2.08697 -3.71097,5.10182 -1.39429,3.01527 -2.31886,6.26158 -0.92763,3.01504 -0.92763,5.79819 0,6.725 2.31886,12.98699 2.55088,6.26165 8.81285,9.97199 h 52.64327 q 6.95675,0 11.82736,4.87 4.87057,4.87 4.87057,11.8275 0,6.72473 -5.10157,11.82747 -4.87057,4.86994 -11.59531,4.86994 h -44.76156 q -5.10105,7.88533 -5.10105,17.85718 0,13.2189 10.436,22.2634 h 60.5288 q 6.72456,0 11.5957,4.87 5.10157,4.87 5.10157,11.59547 0,6.95732 -4.87056,11.82751 -4.87062,4.87 -11.8275,4.87 z"
       id="text11"
       style="font-size:4.74954px;fill:#000000;stroke:#000000;stroke-width:0;stroke-dasharray:none"
       inkscape:export-filename="uwu.svg"
       inkscape:export-xdpi="96"
       inkscape:export-ydpi="96" /><path
       style="opacity:1;fill:#ffd42a;fill-opacity:1;stroke:#000000;stroke-width:0;stroke-linejoin:miter;stroke-dasharray:none;stroke-dashoffset:0;stroke-opacity:1"
       d="m 250.80273,426.56237 c -26.87852,-1.13549 -54.0286,-3.95135 -75.5165,-7.83208 C 129.84894,410.52434 93.548217,394.36553 70.345111,372.0169 48.123684,350.61387 36.91687,325.19995 34.286853,290.24699 32.835774,270.9622 34.853204,254.64219 40.96389,236.233 c 9.792289,-29.50031 30.123251,-55.55867 57.701496,-73.95627 3.788564,-2.5274 14.059154,-8.23233 22.823604,-12.67772 30.57875,-15.50958 46.08971,-26.42648 66.22351,-46.60945 13.11114,-13.143054 21.32831,-23.377998 34.4687,-42.932368 15.12028,-22.500573 19.06344,-25.705832 31.65315,-25.729842 6.33044,-0.01207 8.13505,0.310439 12.08816,2.164653 5.68192,2.664254 10.86147,7.226346 13.69665,12.064184 1.89675,3.236622 2.08333,4.268025 1.71158,9.460971 -0.56213,7.853006 -5.32168,17.296002 -20.14361,39.961293 -12.2299,18.702079 -15.21659,24.321079 -15.83259,29.786269 -0.70736,6.30049 2.72369,12.83347 8.37118,15.92531 2.38895,1.30789 9.81247,1.44965 96.01959,1.8303 l 93.43087,0.40614 5.3743,2.54939 c 10.27965,4.87461 17.37552,14.43841 17.59157,23.70959 0.0746,3.34342 -0.44605,5.33823 -2.28947,8.72621 -3.8671,7.1035 -5.03017,7.96489 -12.85517,9.51908 -13.53839,2.68926 -23.74575,2.99772 -99.79202,3.01908 l -76.26123,0.022 -2.70009,2.41259 c -2.29627,2.05083 -2.70008,2.97285 -2.70008,6.15538 0,3.15347 0.45693,4.21544 2.89372,6.74744 8.95718,9.30037 39.62696,17.47558 83.72425,22.31679 5.50061,0.60228 8.64054,2.78811 11.69725,8.13731 5.77953,10.11351 4.32022,24.03097 -3.31973,31.67087 l -3.58904,3.58952 h -28.573 c -31.43347,0 -31.7795,0.0478 -36.53147,5.06948 -3.40057,3.59372 -4.39441,6.34921 -4.37802,12.14132 0.017,5.88933 2.34438,10.27816 7.2971,13.76103 l 3.57622,2.51478 25.29737,0.40614 25.29746,0.40615 2.12548,4.13381 c 1.86548,3.62838 2.12553,5.14609 2.12553,12.40232 0,9.15323 -1.07176,12.19725 -6.76974,19.22363 l -2.84973,3.51592 h -32.63655 c -30.45459,0 -32.84221,0.10263 -35.70476,1.57329 -13.83085,7.09276 -11.47862,27.62996 3.59978,31.42668 2.18802,0.55478 13.36227,0.9 28.81588,0.9 h 25.24225 l 1.41061,4.75413 c 2.03943,6.87024 1.92224,15.39292 -0.27851,20.1977 -3.62413,7.92688 -11.99933,14.86187 -22.35766,18.51753 -5.40472,1.90761 -6.37642,1.97343 -27.51344,1.86868 -12.05047,-0.0606 -28.85563,-0.401 -37.34435,-0.76131 z"
       id="path17" /><path
       style="opacity:1;fill:#ffd42a;fill-opacity:1;stroke:#000000;stroke-width:0;stroke-linejoin:miter;stroke-dasharray:none;stroke-dashoffset:0;stroke-opacity:1"
       d="m 686.26215,426.37371 c -10.18434,-3.44285 -20.26859,-11.5086 -24.04903,-19.23595 -1.99429,-4.07018 -2.16228,-5.14996 -1.79385,-11.30889 0.21052,-3.74491 0.92193,-8.297 1.55307,-10.11627 l 1.14122,-3.30763 27.34947,-0.40614 27.34977,-0.40614 4.00175,-2.48022 c 5.75289,-3.56885 8.07074,-8.20778 7.68895,-15.39175 -0.31579,-6.03326 -2.34211,-9.61923 -7.4825,-13.28696 l -2.69079,-1.92066 -33.20749,-0.23333 -33.20722,-0.23421 -2.92807,-3.24333 c -8.05566,-8.9255 -9.78965,-21.5625 -4.49956,-32.81651 l 1.68245,-3.58 24.09363,-0.0182 c 27.06135,-0.0204 28.27271,-0.23992 33.36771,-6.04236 7.00873,-7.98323 4.87456,-20.73529 -4.34736,-25.95819 -3.21755,-1.8218 -3.77237,-1.8539 -32.12315,-1.86745 l -28.84982,-0.0146 -3.92324,-3.92741 c -2.84517,-2.84781 -4.29254,-5.16198 -5.25741,-8.41838 -3.42237,-11.5448 -0.0439,-24.09182 7.84149,-29.26352 1.21491,-0.79438 6.42657,-1.8153 13.3842,-2.62061 36.73446,-4.25368 65.96415,-12.23928 75.48436,-20.62256 5.12974,-4.5182 5.1829,-11.45751 0.0965,-14.55056 -2.57982,-1.57609 -4.66956,-1.61982 -78.71751,-1.6435 -75.38375,-0.0242 -86.23501,-0.34693 -99.20348,-2.94869 -7.6224,-1.52986 -9.14767,-2.66149 -12.48192,-9.26214 -3.20351,-6.34354 -3.21272,-12.04095 -0.0249,-18.36329 3.91403,-7.76277 9.75364,-12.69224 18.54618,-15.65424 5.00552,-1.68658 6.27552,-1.7093 96.33295,-1.7093 h 91.25996 l 3.64474,-1.92456 c 5.05013,-2.67081 8.34504,-8.11932 8.4893,-14.05077 0.16214,-5.61673 -1.94101,-9.70859 -16.37478,-32.264335 -15.10548,-23.604772 -19.71903,-33.301594 -19.71903,-41.446775 0,-5.137173 1.70526,-8.613637 6.54,-13.308705 8.56276,-8.321904 20.92355,-10.971331 30.70552,-6.581424 6.77048,3.03835 10.92653,7.602329 21.53828,23.650128 11.23539,16.991231 21.42525,29.787296 33.4642,42.022731 20.47968,20.81396 38.17354,33.32354 68.86563,48.68743 21.56574,10.79561 30.61078,17.10374 44.63959,31.1324 8.51543,8.5163 13.23381,14.0424 17.63653,20.65887 10.45885,15.71657 17.76179,32.70692 21.7931,50.69814 1.56711,6.99901 1.80483,10.59028 1.82851,27.08544 0.0186,16.54467 -0.20614,20.22379 -1.8557,28.30032 -9.76153,48.3092 -40.79266,80.4735 -96.02176,99.53057 -36.69863,12.66262 -81.06519,18.51634 -146.82956,19.37248 -25.06893,0.32719 -32.08757,0.18026 -34.72643,-0.70728 z"
       id="path18" /></g></svg>