<svg width="776" height="542" xmlns="http://www.w3.org/2000/svg" xmlns:xlink="http://www.w3.org/1999/xlink" xml:space="preserve" overflow="hidden">
	<defs>
		<clipPath id="clip0">
			<rect x="252" y="588" width="776" height="542" />
		</clipPath>
	</defs>
	<g clip-path="url(#clip0)" transform="translate(-252 -588)">
		<path d="M323.251 648.517C337.108 640.655 352.93 631.265 382.171 622.966 411.413 614.668 461.494 604.076 498.701 598.726 535.908 593.375 565.695 592.393 605.411 590.864 645.127 589.336 697.064 586.06 736.999 589.554 776.933 593.048 815.449 602.111 845.018 611.829 874.587 621.547 895.972 636.069 914.412 647.861 932.852 659.654 944.199 670.354 955.656 682.584 967.112 694.813 974.314 705.077 983.152 721.237 991.99 737.397 1001.48 752.683 1008.68 779.544 1015.88 806.405 1023.85 855.431 1026.36 882.401 1028.87 909.371 1028.87 918.761 1023.74 941.363 1018.61 963.966 1007.7 995.849 995.59 1018.01 983.479 1040.18 969.622 1059.4 951.073 1074.36 932.524 1089.32 906.447 1099.91 884.298 1107.77 862.148 1115.63 842.727 1117.92 818.177 1121.53 793.627 1125.13 769.186 1128.3 736.999 1129.39 704.811 1130.48 658.33 1130.15 625.051 1128.08 591.772 1126 565.149 1121.09 537.326 1116.94 509.503 1112.79 484.517 1110.17 458.112 1103.18 431.707 1096.19 400.72 1085.38 378.898 1075.01 357.076 1064.64 343.219 1056.12 327.179 1040.94 311.14 1025.77 293.464 1003.6 282.662 983.947 271.86 964.293 267.169 943.875 262.368 923.019 257.567 902.164 255.385 880.326 253.857 858.816 252.33 837.306 250.911 816.778 253.202 793.957 255.494 771.136 259.967 742.529 267.605 721.892 275.243 701.255 289.536 681.819 299.029 670.136 308.521 658.453 309.394 656.378 323.251 648.517Z" fill-rule="evenodd" />
		<path d="M354.856 710.792C361.731 701.735 361.294 699.334 371.879 694.424 382.464 689.514 397.087 686.021 418.365 681.33 439.644 676.638 466.161 670.309 499.552 666.271 532.943 662.234 584.121 658.742 618.713 657.105 653.305 655.468 683.095 656.014 707.102 656.45 731.109 656.887 740.93 655.468 762.754 659.724 784.578 663.98 818.734 674.892 838.048 681.984 857.362 689.077 865.547 692.678 878.641 702.28 891.736 711.883 906.14 724.869 916.616 739.599 927.091 754.331 935.166 773.535 941.495 790.667 947.824 807.799 951.862 823.621 954.59 842.39 957.318 861.159 958.409 886.147 957.864 903.278 957.318 920.41 956.445 928.921 951.316 945.18 946.188 961.439 936.476 986.428 927.091 1000.83 917.707 1015.23 911.705 1022.76 895.01 1031.6 878.314 1040.44 851.579 1048.52 826.917 1053.86 802.256 1059.21 773.448 1061.94 747.04 1063.68 720.633 1065.43 692.261 1065.21 668.473 1064.34 644.684 1063.47 604.309 1058.45 604.309 1058.45 582.703 1056.37 559.46 1054.63 538.836 1051.9 518.212 1049.17 504.353 1049.17 480.565 1042.08 456.776 1034.99 416.62 1020.36 396.105 1009.34 375.589 998.321 367.515 987.628 357.475 975.952 347.436 964.276 341.107 951.727 335.869 939.288 330.632 926.848 328.667 916.263 326.048 901.314 323.429 886.365 321.574 865.851 320.156 849.592 318.737 833.333 315.791 820.566 317.537 803.762 319.283 786.957 325.721 762.624 330.631 748.766 335.542 734.907 347.982 719.849 354.856 710.792Z" fill="#4A646E" fill-rule="evenodd" />
		<path d="M383.881 691.775C375.363 704.902 387.812 729.407 394.364 752.161 400.916 774.914 412.492 807.076 423.194 828.299 433.896 849.521 447.546 866.587 458.576 879.495 469.605 892.404 477.468 898.53 489.371 905.75 501.275 912.97 509.355 918.658 529.995 922.815 550.634 926.972 582.085 929.051 613.208 930.692 644.331 932.333 687.904 933.645 716.733 932.661 745.563 931.677 765.438 927.957 786.187 924.784 806.935 921.612 821.896 919.205 841.225 913.626 860.554 908.047 886.217 897.983 902.161 891.31 918.105 884.637 927.824 879.277 936.887 873.588 945.951 867.899 953.377 860.461 956.544 857.179 959.711 853.897 956.871 859.257 955.889 853.897 954.906 848.536 953.049 835.628 950.647 825.017 948.245 814.406 945.296 802.263 941.474 790.23 937.652 778.196 932.301 761.459 927.714 752.817 923.128 744.175 917.995 743.409 913.955 738.377 909.914 733.345 910.351 728.86 903.471 722.624 896.591 716.388 884.033 707.965 872.676 700.964 861.319 693.963 849.306 686.524 835.328 680.617 821.35 674.709 804.533 669.459 788.807 665.52 773.082 661.582 760.414 658.738 740.976 656.988 721.538 655.237 696.967 654.909 672.178 655.019 647.389 655.128 620.306 656.003 592.241 657.644 564.175 659.285 528.248 662.239 503.786 664.864 479.325 667.489 464.8 669.349 445.471 673.397 426.142 677.444 392.399 678.648 383.881 691.775Z" fill="#98C7DC" fill-rule="evenodd" />
		<path d="M624.883 797.209C642.764 804.191 671.329 813.681 694.225 818.809 717.121 823.936 739.69 827.645 762.259 827.972 784.828 828.299 812.193 825.79 829.638 820.772 847.082 815.754 859.729 805.5 866.925 797.864 874.121 790.228 873.031 782.373 872.813 774.955 872.595 767.537 870.087 760.228 865.617 753.356 861.147 746.483 854.932 739.829 845.992 733.72 837.052 727.612 826.803 722.266 811.975 716.702 797.147 711.139 776.105 704.376 757.025 700.339 737.945 696.303 717.23 693.467 697.496 692.485 677.762 691.504 656.065 691.94 638.621 694.449 621.177 696.958 604.822 702.085 592.829 707.539 580.836 712.993 571.242 719.648 566.662 727.175 562.083 734.702 561.974 744.411 565.354 752.701 568.734 760.992 577.674 769.719 586.942 776.919 596.209 784.119 607.003 790.228 624.883 797.209Z" fill="#FCFEFD" fill-rule="evenodd" />
	</g>
</svg>
